<?xml version="1.0" encoding="UTF-8"?>
<svg width="48" height="48" viewBox="0 0 48 48" xmlns="http://www.w3.org/2000/svg">
  <path d="M24 4C12.95 4 4 12.95 4 24s8.95 20 20 20 20-8.95 20-20S35.05 4 24 4zm0 36c-8.84 0-16-7.16-16-16 0-8.84 7.16-16 16-16s16 7.16 16 16c0 8.84-7.16 16-16 16zm-4-24c0 2.21-1.79 4-4 4s-4-1.79-4-4 1.79-4 4-4 4 1.79 4 4zm16 0c0 2.21-1.79 4-4 4s-4-1.79-4-4 1.79-4 4-4 4 1.79 4 4zm-8 16c-5.52 0-10-4.48-10-10h4c0 3.31 2.69 6 6 6s6-2.69 6-6h4c0 5.52-4.48 10-10 10z" fill="#1976d2"/>
</svg> 