<?xml version="1.0" encoding="UTF-8"?>
<svg width="48" height="48" viewBox="0 0 48 48" xmlns="http://www.w3.org/2000/svg">
  <path d="M31.37 7.07c-.77.77-1.37 1.64-1.85 2.53L24 15.13l-5.52-5.52c-.77-.77-2.03-.77-2.8 0L7.8 17.5c-.77.77-.77 2.03 0 2.8l5.52 5.52-5.52 5.52c-.77.77-.77 2.03 0 2.8l7.89 7.89c.77.77 2.03.77 2.8 0l5.52-5.52 5.52 5.52c.77.77 2.03.77 2.8 0l7.89-7.89c.77-.77.77-2.03 0-2.8L35.7 25.82l5.52-5.52c.77-.77.77-2.03 0-2.8l-7.89-7.89c-.77-.77-2.03-.77-2.8 0l-5.52 5.52-5.52-5.52c-.77-.77-2.03-.77-2.8 0L7.8 17.5c-.77.77-.77 2.03 0 2.8l5.52 5.52-5.52 5.52c-.77.77-.77 2.03 0 2.8l7.89 7.89c.77.77 2.03.77 2.8 0l5.52-5.52 5.52 5.52c.77.77 2.03.77 2.8 0l7.89-7.89c.77-.77.77-2.03 0-2.8L35.7 25.82l5.52-5.52c.77-.77.77-2.03 0-2.8l-7.89-7.89c-.77-.77-2.03-.77-2.8 0z" fill="#1976d2"/>
</svg> 